# xmcd
#
# Track frame offsets:
# 150
# 14652
# 25826
# 42180
# 52626
# 64612
# 76638
# 92904
# 107572
# 118627
# 132749
# 146651
# 157197
# 170520
#
# Disc length: 2508 seconds
#
#
# Revision: 0
# Processed by: cddbd v1.5PL3 Copyright (c) Steve Scherf et al.
# Submitted via: FreeRIP 2.51 
#
DISCID=b609ca0e
DTITLE=Nugget - Well Hidden
DYEAR=1998
DGENRE=Bluegrass
TTITLE0=It Won't Be Long
TTITLE1=Come From The Heart
TTITLE2=No End Of Love
TTITLE3=I'm Satisfied With You
TTITLE4=I Am Still Waiting For You
TTITLE5=Close To The Bridge
TTITLE6=On The Verge
TTITLE7=My Deceitful Heart
TTITLE8=Highway Of Regret
TTITLE9=Burning Old Memories
TTITLE10=I Cried My Tears Alone
TTITLE11=Home On The Range
TTITLE12=Ralph
TTITLE13=Misery Train
EXTD=
EXTT0=
EXTT1=
EXTT2=
EXTT3=
EXTT4=
EXTT5=
EXTT6=
EXTT7=
EXTT8=
EXTT9=
EXTT10=
EXTT11=
EXTT12=
EXTT13=
PLAYORDER=
